<svg version="1" xmlns="http://www.w3.org/2000/svg" width="506.667" height="506.667" viewBox="0 0 380.000000 380.000000"><path d="M166 27.5C106 35.8 53.9 78.6 35.3 135c-6.2 18.8-7.7 28.4-7.7 50.5 0 17 .3 21.6 2.3 30.5C43.8 280.8 91.5 328.1 157 342.1c8.9 1.9 13.6 2.3 31 2.3 17.5.1 22.2-.3 31.7-2.2 18.1-3.6 39.4-11.9 53.5-20.8 2-1.3 3.9-2.4 4.2-2.4.2 0 .9 2.2 1.6 5 1.4 5.8 1.7 6.1 9.8 9 5.6 2.1 7.4 2.2 17 1.7 12.8-.8 22.8-3.3 37.2-9.5 4.3-1.9 7.2-4.8 7.2-7.3 0-3.9-2.1-20.8-3.4-27.8l-1.2-6.4 3.4-2.6c1.9-1.4 5-4.3 7-6.5 16.6-18.2 16.8-18.7 15.1-28.2-.5-2.7-.5-7.4-.1-10.4.9-6.6-.3-17.4-2.5-22.7-2.3-5.5-9-11.9-14-13.4l-4.2-1.3-.6-17c-.4-10.7-1.4-20.7-2.6-26.7-16.9-83.3-96.2-139-181.1-127.4zm2.1 15.9c-2.4 2.4-3.8 4.6-3.3 5 .5.3 1.7 2.1 2.5 3.9l1.6 3.3 14.8-1.8c19.2-2.4 19.3-2.4 19.3-5.1 0-1.2.9-3.7 2-5.5 2.4-3.9 4.5-4 16.9-1.3 9.1 2 11.1 3.5 11.1 8.3 0 3.5-2.2 8.9-4.3 10.6-1.5 1.2-1.2 2 2.8 8 3.6 5.3 5.1 6.7 7.3 6.9 7.2.5 7.5.7 7.9 5.2.3 2.8-.1 5.2-1.2 6.9l-1.6 2.7L246 88c1.5-1.7 2.1-3.4 1.8-5.6-.2-1.8 0-3 .4-2.8.4.3.8 1.2.8 2 0 1.2 2.9 1.4 17.5 1.4 10.1 0 17.5-.4 17.5-.9s-1-1.2-2.2-1.4c-2-.4-2-.4.4-.6 2.2-.1 2.8.4 3.3 2.8.7 3.4 7.6 10.1 10.3 10 1.2 0 .9-.3-.8-1-3.9-1.6-7.9-6-8.6-9.4l-.6-3.2-12.1-1.7c-12.2-1.7-22.4-1.4-19.5.6 1 .8 1 .9-.2.5-1-.2-1.5-1.6-1.5-4.3 0-3.4.3-3.9 2.4-4.2 1.4-.2 3 .3 3.6 1.1 1.1 1.5 23.3 5.2 27.3 4.5 1.5-.2 4.2 1.8 9.7 7.2 4.1 4.1 7.5 7.8 7.5 8.2 0 .3-.6.8-1.2 1.1-.7.2-.6.3.4.2 2.9-.4 16.3 19.4 22.5 33.3 3.5 8 6.9 18 9.9 29.7 2.1 7.8 2.7 13.3 3.1 25.2l.6 15.3h-3.5c-4.6 0-9.8-1.8-12.5-4.4-1.1-1.2-2.8-2.7-3.7-3.4-1.1-.9-1.6-3-1.6-7 0-6.9-2.1-11.5-7.1-15.5-5-3.9-13.3-4.7-20.5-1.9l-5.2 1.9-6.9-6.6-7-6.6 2.6-2.2 2.6-2.2-2.3-.1c-1.3 0-4.5-.7-7.2-1.6l-4.8-1.6 1.5-3.6c.8-2.1 1.9-4.1 2.4-4.7 1.7-1.8.9-8-1.7-12.5-1.4-2.5-2.7-5.6-2.9-6.8-.3-2.6-8.8-11.3-13.4-13.7-1.7-.8-4.6-1.5-6.6-1.5s-3.5-.5-3.5-1.2c0-1.8-3.1-4.8-4.9-4.7-1 0-.8.4.7.9 2.7 1.1 3.8 3.6 2.4 5.3-.6.7-3.3 2.1-6.1 3.1-5.4 1.9-7.1 4.6-7.1 11.2 0 3.4-.8 4.1-2.5 2.6-.6-.5-3.6-1.9-6.7-3.1-5.6-2.2-5.6-2.3-5.1-5.7.6-3.9.4-4-3.7-1.9-2.9 1.5-3 1.5-3.1-.7-.1-3.4-.9-7.1-1.6-7.7-.3-.3-.3.4 0 1.7.5 2.3-.4 3.1-5.7 5.2-2.6.9-2.6.9-2.1-2.8.7-4.8-.5-6.8-3.2-5.3-1.1.5-2.3.7-2.7.3-.4-.3-.5 0-.1.8.4 1.1-1.5 2.8-6.2 5.7-8.8 5.3-16.8 9.3-18.8 9.3-.9 0-2.9.7-4.5 1.5-2.9 1.5-3 1.5-3-1 0-1.6.6-2.5 1.6-2.5 1.4 0 1.4-.1 0-1.6-.9-.8-1.6-2.5-1.6-3.6 0-2.7-7.2-9.8-9.9-9.8-1.1 0-2.1.4-2.1.9 0 .4-1.7 1.1-3.8 1.3-6.4.9-14.2 4.8-14.8 7.4-.3 1.3-2.2 4.1-4 6.1-1.9 2.1-3.7 4.9-4 6.3-.3 1.4-1.2 3.9-1.9 5.5-2.2 5-2.9 13-1.5 18 1.6 5.6 1.6 5.5-10.2 13.6-6.2 4.2-8.6 6.4-7.7 6.9.9.6-.4 2.6-4.6 7.2-9 9.6-14.8 24.4-11.1 28.1.9.8 1.9 4.1 2.2 7.2.8 6.4 3.7 11.4 7.7 13.3 1.5.7 2.7 1.9 2.7 2.7 0 .7-3.7 5.3-8.2 10.2-11.3 12-14.8 16.6-18.4 24.2l-3.1 6.6-5.6-11.7c-6-12.5-8.5-20-12.3-36.7-2-9-2.4-13.2-2.4-28.2 0-15.1.4-19.2 2.5-29 4.5-20.4 11.7-37.8 22.1-53.4 5.6-8.5 13.4-17.8 14.2-17 .3.3 1.7-.6 3.1-1.9 2.2-2 3.7-2.5 9.3-2.7 3.8-.1 7.1.1 7.5.4.9.9-2.9 7.7-4.3 7.7-.6 0-1.7.7-2.4 1.5-1.1 1.3-.9 1.4 1.5.1 1.5-.8 3.6-2.9 4.6-4.6 1.7-2.8 1.8-3.6.7-6.1-2.5-5.8-10.9-5.1-15.9 1.2-1.7 2.2-3.4 3.7-3.7 3.4-.3-.3 1.9-3 4.9-6.1 5.2-5.3 5.6-5.5 9.5-5 3.5.4 4.5.1 6.4-1.9 2.7-2.9 7.4-3.3 10.1-.9 1.7 1.6 2.6 1.3 13.4-3.1 10.3-4.3 11.6-5.1 11.1-6.9-.3-1.2-.6-2.8-.6-3.7 0-1.2-1.8-1.9-7.2-2.9-6.1-1.1-6.9-1.4-5.1-2.3 1.4-.6 4.1-.6 7.8 0 5.5 1 5.6.9 7-1.6 2.4-4.7 5.9-7 12.9-8.6 3.8-.9 7.2-1.3 7.5-.8.3.4 1.7 1.4 3 2.2 2.2 1.2 2.7 1.1 5.8-2.3 1.9-2 4.2-3.6 5.1-3.6 1.1 0 .3 1.4-2.7 4.4zM258.5 78c-.3.5-1.2 1-1.8 1-.7 0-.6-.4.3-1 1.9-1.2 2.3-1.2 1.5 0zm4.8-.3c-.7.2-1.9.2-2.5 0-.7-.3-.2-.5 1.2-.5s1.9.2 1.3.5zm7.5 1c-1 .2-2.6.2-3.5 0-1-.3-.2-.5 1.7-.5s2.7.2 1.8.5zm-176.5 1c-.7.2-2.1.2-3 0-1-.3-.4-.5 1.2-.5 1.7 0 2.4.2 1.8.5zm183.5 0c-1 .2-2.6.2-3.5 0-1-.3-.2-.5 1.7-.5s2.7.2 1.8.5zm-133 29.5c1.5 1.5 1.5 6.5.1 10.7-.9 2.4-1.4 2.9-2 1.9-.7-.9-.8-.8-.7.7.4 3.6-1.4 9.5-2.8 9.5-.8 0-1.4.9-1.4 2s.7 2 1.5 2 1.5-.9 1.5-2 .5-2 1.1-2c.6 0 3.8-1.8 7.1-4 11.5-7.7 33.2-12.4 46-10 3.7.7 6.5 1.6 6.3 2.1-.3.4.3.5 1.3.2 2.6-.6 13.3 3.9 20.7 8.7 3.4 2.2 6.6 4 7.3 4 2 0 2.3-1.9.6-4.5-2.1-3.2-1.5-12.1.9-15.9 3.5-5.3 14-1.4 20.7 7.7 5.6 7.7 5.8 15.3.5 19.7-1.6 1.3-2 1.1-4.5-1.9-4.9-5.8-4.7-9.7.3-11.4 1.8-.6-.3-2.7-2.7-2.7-2.3 0-4.8 2.2-5.9 5.2-1.8 5.1 4.3 13.8 15.1 21.4 8.1 5.7 15.2 12.3 19.6 18.4 3.3 4.4 3.3 4.6 2.9 13.7-.5 11.5-1.8 15.3-6.4 19-5.4 4.3-14.5 14.9-18 21-1.8 3.1-3.4 7.7-3.8 10.6l-.6 5.1-8.2 5.2-8.1 5.3 1-3.5c1.9-7-1.5-14.8-10.5-24.1l-6-6.3h5.5c4.1 0 7-.8 11.5-3 7.4-3.7 10.5-7.8 14.3-19.5 1.6-4.7 3.8-9.9 5-11.5 1.1-1.5 2.3-4.2 2.6-5.8.9-4.6-2.1-5.9-16.3-7.3-14.1-1.3-29.2-.2-42 3.2-11.5 3.1-20.7 3-32.8-.4-8-2.3-12.8-2.9-24.5-3.4-14.4-.6-28.1.7-30.6 2.8-1.4 1.2 0 8.5 2.1 10.9.7.8 2.8 5.9 4.6 11.4 5.1 15.6 10.7 20.5 24.3 21.3l8.1.6-6.4 6.4c-8 8.3-11.4 15.3-10.9 22.7l.3 5.4-2.8-1.6c-13-7.7-34.9-28.4-40-37.9-3.7-6.9-4.4-13.6-2.3-20.4 2.1-6.4 8.5-16.4 10.6-16.4.8 0 1.5-.7 1.5-1.5 0-1.8 5.1-7 15.5-15.9 17.9-15.4 22-20.6 22-27.6 0-3.8-2.8-7.5-5.7-7.5-2.3 0-6.3 3.9-6.3 6.2 0 2.2 2.3 2.4 4 .3 1.9-2.3 3-1.8 3 1.6 0 3.9-3.1 9.2-7.2 12-2.7 2-3.1 2-4.6.6-2.7-2.8-1.9-10.7 1.8-17.1 1.7-3.1 3.4-5.6 3.6-5.6.3 0 .2.6-.2 1.2-.5.9-.2.9.9-.1 1.8-1.5 2.3-2.6.7-1.6-.5.3-1 .2-1-.4 0-1.2 7-6.8 10.1-8 3.4-1.4 7.3-1.3 8.7.1zM301.6 171c1.2 0 3.3 1.1 4.8 2.5 2.3 2.2 2.6 3.1 2.5 9.2-.1 5.1-.3 6-.9 3.8-.4-1.7-.5-4.4-.2-6l.5-3-3.2 3.1c-6.8 6.9-18.1 5.2-18.1-2.6 0-4.4 5.6-8.4 10.5-7.4 1.1.2 2.9.4 4.1.4zm-64.1 2.4c5.4 2.3 6.8 5.4 6.3 14.1-.4 5.5-1.2 8.9-3.4 13.2-2.5 5-3.5 6-7.4 7.5-4.9 1.8-18.5 2.4-20.9.9-1.2-.8.7-4.5 9.4-19 5.9-10 11.2-18.1 11.7-18.1s2.4.6 4.3 1.4zm-75.2 1.1c1.9.8 4.5 2.7 5.7 4.2 1.9 2.4 2.1 3.6 1.5 7.8-1.9 14.8-10 22.5-23.5 22.4-11.1-.1-11.1.5-.9-16.4 11.9-19.6 11.8-19.5 12.8-19.5.5 0 2.4.7 4.4 1.5zm26.5 16.2c1.7 4.2 3 7.8 2.9 7.9-.1.1-2.4-.3-5.2-.8-4.2-.9-5.8-.7-10.1.9l-5.2 2 2.8-6.1c1.5-3.4 3.2-7.3 3.8-8.9.9-2.2 1.8-2.7 4.5-2.7 3.3 0 3.5.2 6.5 7.7zm101.3-1.8c0-.8.2-.9.5-.3.3.7-.9 2.5-2.6 4.2-2.6 2.7-2.9 2.8-2.5.9.3-1.2.7-3.2.8-4.4.1-2.1.2-2.1 1.9-.6 1.5 1.3 1.8 1.3 1.9.2zm10.9 1.5c0 2.3-2.2 3.6-4.2 2.5-2.3-1.2-2.3-3.5-.1-4.8 1.9-1 4.3.2 4.3 2.3zm7 4.2c0 1.3-7.4 3.4-11.7 3.3-4.6-.1-4.5-.1 3.2-1.8 4.4-1 8.1-1.9 8.3-2 .1 0 .2.1.2.5zm7.4 5.1c-.7 2.7-8.5 5.3-17.9 6-8.7.6-12.5-.6-12.5-4.2 0-3 1.5-3.3 2.3-.5.4 1.8 1.4 2 7.5 2 7.5 0 20.2-3.3 20.2-5.2 0-.6.2-.9.5-.7.2.3.2 1.4-.1 2.6zM192.8 205c6.8 3.2 9.8 5.2 21 14.4 4.3 3.5 7.1 6.5 7 7.5-.2.9.3 1.5.9 1.4 1.6-.4 5.9 6.3 6.8 10.4.9 4.3-2 9.6-8.7 15.9-5.7 5.4-10.6 8.7-9.3 6.2.4-.7-.2-.3-1.2 1-1 1.2-6.1 3.9-11.3 5.9-14.8 5.7-24.7 4.7-40.5-4.2-13.1-7.3-21.2-17.1-20.2-24.6 1.3-9.6 18.9-26 36.9-34.4 6.9-3.2 11-3.1 18.6.5zm135.8 1.2l2.9 3.3-3.2-2.9c-3.1-2.8-3.8-3.6-3-3.6.2 0 1.6 1.5 3.3 3.2zm6.9 2.1c2 3.6 2 3.6-.1 6.4-3 4.2-13.6 9.1-24.9 11.4-18.6 3.9-38.9 1.2-41.4-5.3-1.2-3.3-.6-3.4 2.8-.5 4.5 3.8 11.6 5 25 4.4 17.3-.8 31.9-5.6 36.5-11.9l2-2.8-2.3-3.1c-1.4-1.9-1.8-3-1-2.7.8.2 2.3 2.1 3.4 4.1zm13.2-1.7c2.8.8 6.5 2.5 8.1 3.9 3.3 2.8 6.6 9.8 5.7 12.4-.5 1.8-18.6 15.6-24.2 18.4-3.4 1.8-7.1 2.2-8.9.9-2.4-1.6-4.9-9.2-2.5-7.8.5.4.7-.3.4-1.3-.4-1.4 1-3.1 5.4-6.5 5.7-4.5 8.1-5.8 6.7-3.4-.4.7-.3.8.5.4.6-.4.9-1.1.6-1.6-.7-1.2 2.6-2.9 9.5-5l5.5-1.7-2.7-1.3c-1.5-.7-2.5-1.6-2.3-2 .2-.4-.7-.5-2-.2-1.7.3-2.7-.1-3.1-1.2-.7-1.7-3.4-2.2-3.4-.6 0 2.3-2.6.7-4.1-2.6l-1.7-3.4 3.7.6c2 .3 5.9 1.2 8.8 2zm-26.7 2.1c0 .7-3.9-1.7-4.6-2.8-.3-.6.5-.3 2 .6 1.4 1 2.6 1.9 2.6 2.2zm-25.3.3c3.6 0 8.4-.5 10.6-1.2 3.9-1.2 4-1.1 7 2.3 1.7 1.8 3.4 3.4 3.8 3.4.4 0 1.1.4 1.6.9s.2.6-.6.1c-.9-.5-1.2-.3-.9.6.3.8 1 1.4 1.6 1.4.5 0 1.4.4 1.9.9.4.5.3.6-.3.3-.7-.4-1.4-.1-1.7.6-1 2.7-24.2 6.1-33.5 5l-5.4-.6.5-4.1c.3-2.3 1.2-5.8 2.1-7.8 1.5-3.4 1.8-3.7 4.2-2.8 1.4.6 5.5 1 9.1 1zm-18.7-.7c0 .2-1 1.2-2.2 2.3l-2.3 1.9 1.9-2.3c1.8-2.1 2.6-2.7 2.6-1.9zm46.5 2.6c.3.5.2 1.2-.3 1.5-.5.3-.9-.1-.9-.9 0-1.7.3-1.9 1.2-.6zm1.2 3.6c0 .8-.4 1.2-.9.9-.5-.3-.6-1-.3-1.5.9-1.3 1.2-1.1 1.2.6zm-59.6 11.7c-1.5 2.5-1.5 2.5 2.3 3.2 7.7 1.5 15.5 10.4 15.6 17.9 0 2.8-3.8 7.7-6 7.7-.5 0-3.6-2.4-6.8-5.3-3.2-3-7.3-6.2-9-7.3-5.5-3.2-5.5-8.9 0-18.4l3.1-5.5 1 2.9c.7 2 .6 3.5-.2 4.8zm62.9-2.7c0 .2-1 .9-2.2 1.5-2.2 1.1-2.2 1-.4-.4 2.1-1.7 2.6-1.9 2.6-1.1zm-11.9 6.1c-2.7 3.4-2.7 8.8 0 14.9 2 4.5 2 4.8.3 6.4-1.7 1.5-1.7 1.5-.5-.2 2.8-3.6.3-2.6-3.3 1.3-2.9 3.2-3.6 4.8-3.6 8 0 4.5 3.7 9.4 6.3 8.5 1.9-.8 4.3 2.4 5.1 6.6.3 2 1.4 4.3 2.4 5.2 5.2 5 7.7 6.7 9.7 6.7 3.3 0 4.1 1.6 5.9 12.3 2.7 16.2 2.7 15.9-5.1 19.5-15.3 6.9-33.9 9.5-42.1 5.8-2.4-1.1-3.8-2.2-3.3-2.5.6-.4.4-5.5-.5-14.1-.8-7.4-1.7-17.7-2.1-22.8-.5-8.1-.4-9.2 1.1-9.2.9 0 1.6-.8 1.6-2 0-1.3-.7-2-1.9-2-1.9 0-2.3-.6-3.6-6.4-.5-2.4 0-3.3 3.5-6.3 7.3-6.3 9.3-16.4 4.4-22.2-2.4-2.8-5.3-4.4-3.9-2.1 1 1.6-.1 1.1-1.6-.7-1.2-1.4-1.2-1.5 0-.9 1 .7 1.2.3.6-1.3-.6-2-.3-2.1 8.7-2.2 5.1 0 11.8-.7 14.8-1.4 9.1-2 9.5-2 7.1 1.1zm-217.7 2.6c1 1.3 3.5 4.1 5.5 6.3l3.6 4-3.5-3.2-3.4-3.3-4.6 4.3-4.5 4.2 4.5-5 4.5-5-5.8 5.5c-5.3 5.1-7.9 8.9-3.9 5.9.9-.7.4.1-1.2 1.9-3.4 3.6-4.9 4.4-2 .9 1.7-2 1.6-2-.9.2-2.6 2.3-3.8 4.9-1.7 3.6 1.6-1 1.1.1-.7 1.6-1.4 1.2-1.6 1.2-.9-.1.4-.8-.2-.4-1.5 1-4.4 5-7.1 12.6-6.7 19 .1 3.2 0 6.2-.5 6.6-.4.4-2.1-.8-3.7-2.7-5.3-6.1-3.6-15.7 4.7-26.4 6-7.8 18.5-21.3 19.8-21.4.6-.1 1.9.9 2.9 2.1zM362 242.6l-2.2 9.5-7.6 3.8c-4.2 2.2-11.3 6-15.7 8.5-4.4 2.5-8.9 4.6-10.1 4.6-5 0-7.6-8.6-4.4-14.5 2.5-4.6 6.1-5.7 15.9-5 6.4.4 8.2.3 6.9-.5-1-.6-1.8-1.5-1.8-2s4.6-4.5 10.3-8.9c7.3-5.7 10.3-7.5 10.5-6.4.2.8-.6 5.8-1.8 10.9zm-249.9 2.1c1.3 1.6 1.2 1.7-.3.4-1-.7-1.8-1.5-1.8-1.7 0-.8.8-.3 2.1 1.3zm125.4 15.8c-.4 3.6-.4 6.5-.1 6.5.4 0 2.3-.7 4.4-1.6 4.4-1.9 22.2-3.2 22.2-1.6 0 .5-1.6 1.3-3.6 1.7-6.1 1.1-17.4 5.3-20.9 7.6l-3.3 2.3-.7 15.3c-.6 12.7-.4 16.9 1 24.3 1 5 1.6 9.2 1.4 9.5-.2.2-1.6.6-3 1l-2.5.6-1.3-11.8c-1-9.2-1.1-15.4-.2-28.3.6-9.1 1.5-18.1 2-20 .6-1.9 1.5-5.4 2.1-7.8 1.7-6.6 3.3-5.2 2.5 2.3zm118.6 1.3c-3.4 3.3-6.1 6.5-6.1 7 0 1.5-11.9 9.2-15.2 9.9-1.5.3-3.4 0-4.1-.6-.8-.6-1.6-.8-2-.5-.3.3-1-.3-1.6-1.4-.9-1.7-.5-2.1 3.1-3.1 2.2-.7 8.8-4.2 14.5-7.7 5.7-3.5 10.7-6.4 11.1-6.4.4 0 1.8-.9 3.2-2 4.6-3.5 3.2-1.2-2.9 4.8zM84 256.4c0 .2-.8 1-1.7 1.7-1.6 1.3-1.7 1.2-.4-.4 1.3-1.6 2.1-2.1 2.1-1.3zm149.7 1.8c.2 1.7 0 1.9-.7.8-.5-.8-.6-1.8-.4-2.2.8-1.2 1-1 1.1 1.4zm55.3-1.8c0 .2-.8 1-1.7 1.7-1.6 1.3-1.7 1.2-.4-.4 1.3-1.6 2.1-2.1 2.1-1.3zm-168.1 9.2c1.2 4.8 2.8 9.9 3.6 11.5 1.9 3.5 4.1 30.6 3.1 37.1-.7 5-1.9 5.8-5 3.5-1.5-1.1-1.6-1.5-.2-4.9 1.2-2.8 1.3-4.8.6-9.4-.6-3.3-1-9.6-1-14.1 0-10.4-1.2-13.1-5.9-13.8-2-.3-5.8-1.2-8.6-2-2.7-.8-7.2-2-10-2.6-8-1.9-7.6-2.9 1.3-2.9 5.6 0 10 .6 13.9 2l5.6 1.9-.5-7.4c-.3-4.1-.2-7.5.2-7.5s1.7 3.9 2.9 8.6zm192.8-4.4c-.3.7-.5.2-.5-1.2s.2-1.9.5-1.3c.2.7.2 1.9 0 2.5zm-81 2c-.3.8-.6.5-.6-.6-.1-1.1.2-1.7.5-1.3.3.3.4 1.2.1 1.9zm27-1.5c-2 .2-5.2.2-7 0-1.7-.2 0-.4 3.8-.4 3.9 0 5.3.2 3.2.4zm-12 .9c-.3.3-1.2.4-1.9.1-.8-.3-.5-.6.6-.6 1.1-.1 1.7.2 1.3.5zM117 266.5c0 1.9-.4 3.5-.8 3.5s-.6-1.6-.4-3.5c.2-1.9.6-3.5.8-3.5.2 0 .4 1.6.4 3.5zm105-3.1c0 .2-.8 1-1.7 1.7-1.6 1.3-1.7 1.2-.4-.4 1.3-1.6 2.1-2.1 2.1-1.3zm-115.7 3.3c-.7.2-1.9.2-2.5 0-.7-.3-.2-.5 1.2-.5s1.9.2 1.3.5zm-28.6 7.5c-.2 1.3-.4.3-.4-2.2s.2-3.5.4-2.3c.2 1.3.2 3.3 0 4.5zm194 3c-.3.7-.5.2-.5-1.2s.2-1.9.5-1.3c.2.7.2 1.9 0 2.5zm10 0c-.3.8-.6.5-.6-.6-.1-1.1.2-1.7.5-1.3.3.3.4 1.2.1 1.9zm-95.9 2.5c-1.6.2-4 .2-5.5 0-1.6-.2-.3-.4 2.7-.4s4.3.2 2.8.4z"/><path d="M184.3 56.3L169 58.4V65.7l11.4 5.3c6.7 3 11.9 4.9 12.7 4.5.8-.5 1-.4.5.3-.4.7-.1 1.2.9 1.2.9 0 1.4-.4 1.1-.8-.2-.4.4-.8 1.5-.9 6.8-.6 7.4-.5 9.9 2.5 3 3.6 8.2 5 11.7 3.1 3.3-1.8 5.9-.1 5.6 3.7-.2 2.4 0 2.6.8 1.1.6-.9.7-2.7.4-4-.5-1.9-.4-2 .5-.5 1.6 2.6 3.7 2.2 4.6-1 .4-1.5.6-3.1.5-3.5-.1-.5.3-.6.9-.2.7.4.7 1.2 0 2.5-1.6 3-1.2 6.6 1.1 9.1l2.1 2.4-1.6-2.5c-1.8-2.7-2.1-6.7-.7-8.9 1.1-1.7-.5-5.5-1.8-4.6-.5.2-.8-.3-.7-1.3 0-.9-.5-1.6-1.2-1.4-.8.1-1.1-.2-.7-.8.3-.5-.3-2.3-1.4-3.9-1.9-2.7-2.3-2.8-6-1.8-6 1.6-12.5-1.2-16-6.9-1.4-2.4-3.3-4.3-4.1-4.2-.8 0-8.4 1-16.7 2.1zM212 79.6c0 .2-.7.4-1.5.4s-1.5-.4-1.5-1c0-.5.7-.7 1.5-.4.8.4 1.5.8 1.5 1zm9.5-.9c-1.1.3-2.4.9-2.9 1.4-.6.5-1.7.9-2.5.9-1 0-.6-.6.9-1.4 1.4-.8 3.4-1.4 4.5-1.4h2l-2 .5zM127.3 70.8c-4.6 1.9-8 3.8-7.7 4.3.3.5-.2.6-1 .3-2.2-.8-5.6 1.4-5.6 3.7 0 3-4.4 6.9-7.8 6.9-2.2 0-3.3.8-4.9 3.7-1.5 2.8-1.8 4.4-1.2 5.8.9 1.9.9 1.9.5-.2-.6-3.4 2.9-8.3 6-8.3s8.4-5 8.4-7.9c0-1.2.4-2.1 1-2.1s.6.9 0 2.6c-.6 1.4-1 2.7-1 3 0 .2 4.5.4 9.9.4 9.6 0 10-.1 12.1-2.8 1.6-2 1.5-1.5-.5 2-1.5 2.7-2.5 4.8-2.2 4.8 1.1 0 5.8-9.1 5.2-10-.4-.6-.1-.9.6-.8 2.4.5 1.9-2.7-.9-5.8l-2.7-3-8.2 3.4zM164.2 72l-3.2 3.8 4.9 10.6c2.8 5.8 5.6 10.6 6.3 10.6.9 0 1-.3.2-.8-1.2-.8-4.7-7.4-5.8-11l-.7-2.2h13c7.2 0 13.1-.4 13.1-.9s-1.4-1.4-3-2.1c-1.7-.7-2.9-1.5-2.6-1.7.2-.2 1.8.3 3.5 1.2 2.1 1 3.1 2.3 3.1 3.9 0 2.1 3.7 6.6 5.4 6.6.5 0-.3-.9-1.8-2.1-1.7-1.3-2.6-3-2.6-4.8 0-2.4-.8-3.1-5.9-5.5-3.4-1.7-6.4-2.5-7.1-2.1-.8.5-1.1.4-.7-.2.8-1.3-2-2.6-3.5-1.6-.6.3-.8.1-.5-.4.4-.6.1-1.3-.6-1.6-8.9-3.7-7.9-3.8-11.5.3zm1.7 10.5c0 .5-.6-.1-1.4-1.5-.8-1.4-1.4-3-1.4-3.5 0-.6.6.1 1.4 1.5.8 1.4 1.4 2.9 1.4 3.5zM143 77c0 .6.5.8 1.2.4s.8-.3.4.5c-.4.6-1.1.9-1.6.6-.4-.3-2.3 2.1-4 5.2-1.8 3.2-4 6.8-4.8 8-.8 1.3-1.2 2.3-.9 2.3.4 0 2.5-3.2 4.8-7 4-6.8 5.5-8.7 4.2-5.4-.5 1.3.6 1.5 8.5 1.2l9.1-.3 4 8.5c2.3 4.6 4.1 8 4.1 7.5 0-.6-2.1-5.6-4.7-11.2l-4.8-10.2-4.5.2c-2.5.1-6-.2-7.7-.6-2.3-.6-3.3-.5-3.3.3zm5.7 1.6c-.3.3-1.2.4-1.9.1-.8-.3-.5-.6.6-.6 1.1-.1 1.7.2 1.3.5zm9 0c-.3.3-1.2.4-1.9.1-.8-.3-.5-.6.6-.6 1.1-.1 1.7.2 1.3.5zM207.6 86.7l-1.7 2.8 2-2.3c1.8-2 2.6-2.3 6.1-1.7 2.2.4 4.2 1.1 4.6 1.6.3.5 1.5.8 2.7.8 2-.1 2.1-.2.2-.6-1.1-.3-2.5-.9-3-1.4-.6-.4-2.9-1.1-5.1-1.5-3.7-.5-4.2-.3-5.8 2.3zM131 90c-.6 1.1-.8 2-.6 2 .3 0 1-.9 1.6-2 .6-1.1.8-2 .6-2-.3 0-1 .9-1.6 2zM204.2 92c0 1.9.2 2.7.5 1.7.2-.9.2-2.5 0-3.5-.3-.9-.5-.1-.5 1.8zM200.2 92c0 1.4.2 1.9.5 1.2.2-.6.2-1.8 0-2.5-.3-.6-.5-.1-.5 1.3zM239.5 91c-1.3.6-1.5.9-.5.9.8 0 2.2-.4 3-.9 1.8-1.2.2-1.2-2.5 0zM262.4 92.6c-1.9 1.5-1.9 1.5.1.6 1.1-.5 2.7-1.2 3.5-1.5 1.3-.5 1.3-.6-.1-.6-.8-.1-2.4.6-3.5 1.5zM268.1 92.3c.2.1 1.5 1.1 2.9 2.2l2.5 2-1.9-2.3c-1.1-1.2-2.4-2.2-2.9-2.2-.6 0-.8.1-.6.3zM127.7 95c-.9 1.1-1.3 2-.7 2 .5 0 1.4-.9 2-2 .6-1.1.9-2 .8-2-.2 0-1.1.9-2.1 2zM118.8 95.7c1.2.2 3.2.2 4.5 0 1.2-.2.2-.4-2.3-.4s-3.5.2-2.2.4zM131 96.9c-.7 1.5-.7 2.2.2 2.7.7.4 1 .4.6-.1-.4-.4-.3-1.6.3-2.6.5-1.1.7-1.9.5-1.9-.3 0-1 .9-1.6 1.9zM200.7 96.9c-.4 1.7-.3 2.1.5 1.3.5-.5.8-1.6.6-2.3-.3-.8-.7-.3-1.1 1zM110.7 99.2c-1.8 1.8-2.1 2.3-.7 1.2 1.4-1.2 3.4-2.6 4.5-3.2 1.1-.6 1.4-1.2.7-1.2s-2.7 1.5-4.5 3.2zM179 96.7c.8.3 2.4 1 3.5 1.5 2 .9 2 .9.1-.6-1.1-.9-2.7-1.6-3.5-1.5-1.4 0-1.4.1-.1.6zM205 97.4c0 .2.8 1 1.8 1.7 1.5 1.3 1.6 1.2.3-.4s-2.1-2.1-2.1-1.3zM228.5 98.1c-.4.6-.5 1.2-.2 1.5.2.3.7-.2 1-1.1.7-1.7.1-2-.8-.4zM257.2 100c0 1.4.2 1.9.5 1.2.2-.6.2-1.8 0-2.5-.3-.6-.5-.1-.5 1.3zM206.6 103.7c-.6 1.4-.5 1.5.5.6.7-.7 1-1.5.7-1.8-.3-.3-.9.2-1.2 1.2zM161.5 104.1c-.4.6-.5 1.2-.2 1.5.2.3.7-.2 1-1.1.7-1.7.1-2-.8-.4zM202.8 105.7c.7.3 1.6.2 1.9-.1.4-.3-.2-.6-1.3-.5-1.1 0-1.4.3-.6.6zM261.7 107.1c.7.7 1.5 1 1.8.7.3-.3-.2-.9-1.2-1.2-1.4-.6-1.5-.5-.6.5zM216.3 107.7c.9.2 2.3.2 3 0 .6-.3-.1-.5-1.8-.5-1.6 0-2.2.2-1.2.5zM209 112c-.9.6-1 1-.3 1 .6 0 1.5-.5 1.8-1 .8-1.2.4-1.2-1.5 0zM283.8 111.7c.6.2 1.8.2 2.5 0 .6-.3.1-.5-1.3-.5-1.4 0-1.9.2-1.2.5zM100.8 112.7c.6.2 1.8.2 2.5 0 .6-.3.1-.5-1.3-.5-1.4 0-1.9.2-1.2.5zM79.8 113.7c.7.3 1.6.2 1.9-.1.4-.3-.2-.6-1.3-.5-1.1 0-1.4.3-.6.6zM94.8 113.7c.7.3 1.6.2 1.9-.1.4-.3-.2-.6-1.3-.5-1.1 0-1.4.3-.6.6zM88.8 114.7c.7.3 1.6.2 1.9-.1.4-.3-.2-.6-1.3-.5-1.1 0-1.4.3-.6.6zM76.1 117.6c0 1.1.3 1.4.6.6.3-.7.2-1.6-.1-1.9-.3-.4-.6.2-.5 1.3zM99.8 116.7c.7.3 1.6.2 1.9-.1.4-.3-.2-.6-1.3-.5-1.1 0-1.4.3-.6.6zM158.3 130.7c.9.2 2.5.2 3.5 0 .9-.3.1-.5-1.8-.5-1.9 0-2.7.2-1.7.5zM195.8 130.7c.7.3 1.6.2 1.9-.1.4-.3-.2-.6-1.3-.5-1.1 0-1.4.3-.6.6zM166 131.4c0 .3.9 1 2 1.6 1.1.6 2 .8 2 .6 0-.3-.9-1-2-1.6-1.1-.6-2-.8-2-.6zM191.5 132c-.3.6.1.7.9.4 1.8-.7 2.1-1.4.7-1.4-.6 0-1.3.4-1.6 1zM139.5 143.6l-3 2.6 3.3-2.2c1.7-1.2 3.2-2.3 3.2-2.6 0-.7-.4-.5-3.5 2.2zM193.9 146.7c-1.3 1.6-1.2 1.7.4.4 1.6-1.3 2.1-2.1 1.3-2.1-.2 0-1 .8-1.7 1.7zM193.1 157.3c-1.3 2.1-1.2 2.1.5.5 1-1 1.6-2 1.3-2.2-.3-.3-1.1.5-1.8 1.7zM187.3 163.5c0 3.3.2 4.5.4 2.7.2-1.8.2-4.5 0-6s-.4 0-.4 3.3zM259 161.5c1.9 1.9 3.6 3.5 3.9 3.5.3 0-1-1.6-2.9-3.5s-3.6-3.5-3.9-3.5c-.3 0 1 1.6 2.9 3.5zM181.1 168.6c0 1.1.3 1.4.6.6.3-.7.2-1.6-.1-1.9-.3-.4-.6.2-.5 1.3zM91.2 194.5c0 1.6.2 2.2.5 1.2.2-.9.2-2.3 0-3-.3-.6-.5.1-.5 1.8zM99.2 205.5c0 1.6.2 2.2.5 1.2.2-.9.2-2.3 0-3-.3-.6-.5.1-.5 1.8zM136.4 217.2l-1.9 2.3 2.3-1.9c2.1-1.8 2.7-2.6 1.9-2.6-.2 0-1.2 1-2.3 2.2zM111.5 228c2.1 2.2 4.1 4 4.4 4 .3 0-1.3-1.8-3.4-4-2.1-2.2-4.1-4-4.4-4-.3 0 1.3 1.8 3.4 4zM126.5 242c2.1 2.2 4.1 4 4.4 4 .3 0-1.3-1.8-3.4-4-2.1-2.2-4.1-4-4.4-4-.3 0 1.3 1.8 3.4 4zM174.9 216c-9.4 1.7-12.8 5.2-12.7 13 .1 1.9.3 3 .5 2.4.2-.5 2.5 1.1 5.2 3.7s6.4 5.2 8.3 5.8c3.2 1.1 3.6 1.6 4.2 5.8.3 2.5.6 6.1.6 7.9v3.4l-5.2.1-5.3.1 4 1c9.4 2.3 24.9-.9 33.8-7.1 5.3-3.6 5.4-3.6 6-1.4.3 1 .5.4.6-1.4.1-4-2.1-6.3-6.2-6.3-2.9.1-3 .2-1.4 1.4 1.6 1.3 1.5 1.6-1.5 4.1-4.2 3.6-13 7.5-16.8 7.5h-3v-6.9c0-6.5.2-6.9 2.4-7.5 1.4-.3 4.5-2.1 6.9-4 2.5-1.9 4.9-3.1 5.3-2.8.4.4.4.2.1-.5-.4-.6-.2-1.3.3-1.5 1.4-.4 2.4-7.1 1.6-10.3-1.3-5.1-16.2-8.6-27.7-6.5zm23.1 4.5c2.5 2.3 2.5 4.1 0 8.2-2.5 4.2-4 4.2-3.3 0 .3-2.3 0-3.9-1.1-5-1.6-1.6-7.6-3.7-10.6-3.7-.8 0-2.2-.5-3-1.1-1.1-.7.9-.9 7.2-.6 6.7.2 9.2.8 10.8 2.2zM223.1 232.5c.1 1.9 1.8 5.1 1.8 3.5 0-.8-.4-2.2-.9-3-.5-.8-.9-1.1-.9-.5z"/><path d="M163 233.9c0 .6.4 1.3 1 1.6.6.3.7-.1.4-.9-.7-1.8-1.4-2.1-1.4-.7zM195 240.2c-2.5 2.2-3.6 3.6-2.5 3 1.9-1 8.4-7.2 7.4-7.2-.2.1-2.4 1.9-4.9 4.2zM167 239.5c1.3 1.4 2.6 2.5 2.8 2.5.3 0-.5-1.1-1.8-2.5s-2.6-2.5-2.8-2.5c-.3 0 .5 1.1 1.8 2.5zM225.3 242.5c0 2.7.2 3.8.4 2.2.2-1.5.2-3.7 0-5-.2-1.2-.4 0-.4 2.8zM171 242.4c0 .3.9 1 2 1.6 1.1.6 2 .8 2 .6 0-.3-.9-1-2-1.6-1.1-.6-2-.8-2-.6zM187.3 250.5c0 2.7.2 3.8.4 2.2.2-1.5.2-3.7 0-5-.2-1.2-.4 0-.4 2.8zM215.5 256.2l-4 4.3 4.3-4c3.9-3.6 4.7-4.5 3.9-4.5-.2 0-2.1 1.9-4.2 4.2zM190.5 263c-.3.6.1.7.9.4 1.8-.7 2.1-1.4.7-1.4-.6 0-1.3.4-1.6 1zM179 264c2 1.3 10.3 1.3 9.5 0-.3-.6-3-1-5.8-1-3.7 0-4.8.3-3.7 1zM289 268.5c0 .9.5 1.5 1.1 1.3.6-.2 1.1-.8 1.1-1.3s-.5-1.1-1.1-1.3c-.6-.2-1.1.4-1.1 1.3zM358.9 236.7c-1.3 1.6-1.2 1.7.4.4.9-.7 1.7-1.5 1.7-1.7 0-.8-.8-.3-2.1 1.3zM350.9 243.7c-1.3 1.6-1.2 1.7.4.4 1.6-1.3 2.1-2.1 1.3-2.1-.2 0-1 .8-1.7 1.7zM353.4 262.2l-1.9 2.3 2.3-1.9c2.1-1.8 2.7-2.6 1.9-2.6-.2 0-1.2 1-2.3 2.2z"/></svg>